<?xml version="1.0" encoding="utf-8"?>
<!-- Generator: Adobe Illustrator 16.0.0, SVG Export Plug-In . SVG Version: 6.00 Build 0)  -->
<!DOCTYPE svg PUBLIC "-//W3C//DTD SVG 1.1//EN" "http://www.w3.org/Graphics/SVG/1.1/DTD/svg11.dtd">
<svg version="1.1" id="Layer_1" xmlns="http://www.w3.org/2000/svg" xmlns:xlink="http://www.w3.org/1999/xlink" x="0px" y="0px"
	 width="882px" height="588px" viewBox="0 0 882 588" enable-background="new 0 0 882 588" xml:space="preserve">
<g>
	<polygon fill="#3F4040" points="44.3,327.023 442.3,101.023 845.3,327.023 753.58,327.023 444.8,158.023 137.3,327.023 	"/>
	<polygon fill="#3F4040" points="249.3,25.023 249.3,192.023 333.3,145.023 333.3,25.023 	"/>
	<polygon fill="#3F4040" points="551.3,141.023 551.3,25.023 635.3,25.023 635.3,192.023 	"/>
	<polygon fill="#3F4040" points="551.3,232.023 551.3,327.023 635.3,327.023 635.3,279.523 	"/>
	<polygon fill="#3F4040" points="249.3,279.523 333.3,232.023 333.3,327.023 249.3,327.023 	"/>
	<rect x="385.3" y="199.023" fill="#AF2024" width="48" height="45"/>
	<rect x="456.3" y="199.023" fill="#AF2024" width="48" height="45"/>
	<rect x="385.3" y="261.023" fill="#AF2024" width="48" height="45"/>
	<rect x="456.3" y="261.023" fill="#AF2024" width="48" height="45"/>
</g>
<g>
	<path fill="#AF2024" d="M843.536,462.977v-10.783h-10.784v10.783H843.536z M800.45,450.615c-3.964,3.297-8.804,4.943-14.52,4.943
		c-4.7,0-9.066-1.209-13.1-3.629s-7.005-6.076-8.916-10.969c-1.912-4.893-2.867-10.617-2.867-17.176
		c0-5.086,0.806-10.021,2.42-14.809c1.612-4.787,4.409-8.602,8.391-11.443c3.979-2.84,8.934-4.26,14.861-4.26
		c5.155,0,9.434,1.279,12.836,3.84c3.401,2.561,5.997,6.646,7.786,12.258l10.048-2.367c-2.069-7.119-5.734-12.645-10.995-16.572
		s-11.749-5.893-19.464-5.893c-6.805,0-13.039,1.553-18.702,4.656c-5.664,3.104-10.031,7.646-13.1,13.625
		c-3.069,5.98-4.603,12.986-4.603,21.018c0,7.365,1.358,14.256,4.077,20.674c2.717,6.418,6.681,11.32,11.889,14.703
		c5.208,3.385,11.969,5.078,20.28,5.078c8.03,0,14.826-2.201,20.385-6.604c5.559-4.4,9.408-10.793,11.548-19.174l-10.206-2.578
		C807.096,442.426,804.413,447.318,800.45,450.615z M685.346,462.977v-60.604l40.508,60.604h10.469v-77.121h-9.785v60.551
		l-40.507-60.551h-10.469v77.121H685.346z M657.675,462.977v-77.121h-10.206v77.121H657.675z M544.701,452.061
		c2.683,4.086,6.382,7.146,11.1,9.18c4.717,2.035,10.565,3.053,17.545,3.053c5.505,0,10.459-1.01,14.861-3.025
		c4.4-2.016,7.776-4.84,10.127-8.471c2.349-3.629,3.524-7.496,3.524-11.6c0-4.137-1.07-7.793-3.209-10.969
		c-2.14-3.174-5.454-5.795-9.942-7.863c-3.087-1.402-8.777-3.043-17.071-4.92c-8.295-1.875-13.424-3.709-15.388-5.498
		c-1.999-1.787-2.999-4.066-2.999-6.838c0-3.191,1.412-5.918,4.235-8.18c2.822-2.264,7.32-3.395,13.493-3.395
		c5.927,0,10.407,1.246,13.441,3.736c3.033,2.49,4.813,6.172,5.34,11.047l9.785-0.736c-0.176-4.525-1.438-8.576-3.788-12.152
		c-2.35-3.578-5.708-6.287-10.074-8.129c-4.366-1.84-9.408-2.762-15.125-2.762c-5.19,0-9.908,0.877-14.15,2.631
		c-4.244,1.754-7.471,4.322-9.68,7.707c-2.21,3.385-3.314,7.023-3.314,10.916c0,3.543,0.902,6.742,2.709,9.602
		c1.806,2.857,4.551,5.252,8.233,7.18c2.841,1.51,7.803,3.113,14.888,4.814c7.084,1.701,11.66,2.955,13.73,3.762
		c3.226,1.227,5.541,2.744,6.944,4.551c1.402,1.807,2.104,3.918,2.104,6.338c0,2.387-0.728,4.586-2.183,6.604
		c-1.456,2.016-3.675,3.604-6.655,4.76c-2.981,1.158-6.418,1.736-10.311,1.736c-4.385,0-8.33-0.764-11.837-2.289
		c-3.508-1.525-6.094-3.523-7.76-5.996s-2.728-5.639-3.183-9.496l-9.627,0.842C540.605,443.355,542.018,447.977,544.701,452.061z
		 M476.496,394.377h24.409c5.717,0,9.898,1.176,12.547,3.525c2.647,2.35,3.972,5.348,3.972,8.996c0,2.49-0.684,4.795-2.052,6.918
		c-1.367,2.121-3.366,3.664-5.997,4.629c-2.63,0.965-6.278,1.447-10.942,1.447h-21.937V394.377z M476.496,462.977V428.73h11.836
		c2.631,0,4.524,0.123,5.682,0.367c1.578,0.387,3.131,1.07,4.656,2.053s3.252,2.701,5.182,5.154
		c1.929,2.455,4.384,5.998,7.365,10.627l10.205,16.045h12.837l-13.415-20.99c-2.666-4.104-5.489-7.521-8.47-10.258
		c-1.403-1.262-3.455-2.543-6.155-3.84c7.399-1.018,12.871-3.402,16.413-7.154c3.542-3.754,5.313-8.365,5.313-13.836
		c0-4.244-1.07-8.119-3.209-11.627c-2.14-3.506-4.997-5.953-8.574-7.338c-3.578-1.385-8.804-2.078-15.678-2.078H466.29v77.121
		H476.496z M397.559,400.717c5.208-4.963,11.424-7.443,18.649-7.443c5.085,0,9.671,1.287,13.757,3.865
		c4.085,2.578,7.189,6.209,9.312,10.891c2.121,4.682,3.182,10.162,3.182,16.439c0,9.926-2.48,17.588-7.443,22.988
		c-4.963,5.402-11.284,8.102-18.965,8.102c-7.541,0-13.81-2.674-18.807-8.021s-7.497-12.67-7.497-21.963
		C389.747,413.965,392.351,405.68,397.559,400.717z M383.644,444.67c2.946,6.068,7.277,10.855,12.994,14.361
		c5.716,3.508,12.205,5.262,19.465,5.262c6.698,0,12.941-1.588,18.728-4.762c5.787-3.174,10.258-7.846,13.414-14.02
		c3.156-6.172,4.734-13.17,4.734-20.99c0-7.715-1.498-14.615-4.496-20.701c-3-6.084-7.357-10.828-13.074-14.23
		c-5.717-3.4-12.135-5.104-19.254-5.104c-10.872,0-19.746,3.623-26.619,10.863c-6.874,7.244-10.311,17.266-10.311,30.066
		C379.225,432.186,380.698,438.604,383.644,444.67z M348.292,462.977v-68.021h25.515v-9.1h-61.13v9.1h25.41v68.021H348.292z
		 M314.308,462.977v-9.1h-37.982v-68.021H266.12v77.121H314.308z M216.933,408.686c1.789-4.873,3.173-9.783,4.156-14.729
		c1.192,4.174,3.016,9.504,5.471,15.992l8.049,21.357h-26.146L216.933,408.686z M197.047,462.977l8.47-23.357h32.248l8.996,23.357
		h11.626l-31.564-77.121h-10.995l-29.618,77.121H197.047z M180.581,462.977v-9.1h-47.347v-26.252h42.665v-9.049h-42.665v-23.621
		h45.558v-9.1h-55.764v77.121H180.581z M55.375,394.377h24.41c5.716,0,9.898,1.176,12.546,3.525c2.648,2.35,3.972,5.348,3.972,8.996
		c0,2.49-0.684,4.795-2.052,6.918c-1.368,2.121-3.367,3.664-5.997,4.629s-6.278,1.447-10.942,1.447H55.375V394.377z M55.375,462.977
		V428.73h11.837c2.63,0,4.524,0.123,5.682,0.367c1.578,0.387,3.13,1.07,4.656,2.053c1.525,0.982,3.252,2.701,5.182,5.154
		c1.928,2.455,4.384,5.998,7.365,10.627l10.206,16.045h12.836l-13.415-20.99c-2.666-4.104-5.489-7.521-8.47-10.258
		c-1.403-1.262-3.455-2.543-6.155-3.84c7.399-1.018,12.871-3.402,16.414-7.154c3.542-3.754,5.313-8.365,5.313-13.836
		c0-4.244-1.07-8.119-3.209-11.627c-2.14-3.506-4.998-5.953-8.575-7.338s-8.803-2.078-15.677-2.078H45.17v77.121H55.375z"/>
</g>
<g>
	<path fill="#3F4040" d="M824.133,518.414c-1.847,1.707-2.77,3.698-2.77,5.975c0,2.484,1.215,5.074,3.646,7.768
		c1.753,1.928,2.88,3.31,3.383,4.146c0.502,0.836,0.754,1.672,0.754,2.508c0,0.859-0.269,1.725-0.804,2.595
		c-0.536,0.871-1.281,1.521-2.235,1.951c-0.955,0.43-2.061,0.645-3.318,0.645c-1.094,0-1.956-0.268-2.584-0.803
		c-0.652-0.534-0.979-1.186-0.979-1.953c0-0.209,0.008-0.465,0.023-0.767c0.03-0.372,0.047-0.675,0.047-0.907
		c0-0.581-0.234-1.087-0.701-1.518c-0.468-0.43-1.028-0.645-1.683-0.645c-0.748,0-1.379,0.268-1.893,0.802
		c-0.515,0.535-0.771,1.209-0.771,2.023c0,1.65,0.678,3.04,2.033,4.167c1.354,1.128,3.423,1.692,6.204,1.692
		c3.317,0,6.029-0.923,8.132-2.77c2.104-1.846,3.154-4,3.154-6.462c0-2.461-1.297-5.063-3.891-7.803
		c-1.893-1.997-3.072-3.442-3.54-4.337c-0.468-0.894-0.701-1.816-0.701-2.77c0-1.091,0.368-2.003,1.104-2.733
		c0.736-0.731,1.583-1.098,2.541-1.098c1.122,0,2.255,0.756,3.4,2.267c0.607,0.791,1.074,1.285,1.402,1.482
		c0.326,0.198,0.712,0.297,1.156,0.297c0.678,0,1.256-0.232,1.735-0.698c0.479-0.465,0.718-1.011,0.718-1.639
		c0-1.047-0.566-1.971-1.699-2.773c-1.134-0.802-2.74-1.203-4.82-1.203C828.327,515.854,825.979,516.707,824.133,518.414z
		 M787.89,520.533c0.701-0.492,1.238-0.738,1.612-0.738c0.467,0,0.701,0.314,0.701,0.942c0,0.233-0.059,0.617-0.176,1.152
		l-3.119,13.271c-0.725,3.19-1.577,6.532-2.559,10.024h5.223l2.839-12.189c0.631-2.747,1.413-4.749,2.349-6.007
		c1.472-1.956,3.306-3.656,5.503-5.1c1.472-0.978,2.676-1.467,3.61-1.467c0.864,0,1.297,0.36,1.297,1.081
		c0,0.488-0.397,2.197-1.191,5.127c-2.594,8.231-3.891,13.382-3.891,15.45c0,1.442,0.245,2.482,0.735,3.122
		c0.491,0.639,1.18,0.959,2.068,0.959c0.958,0,2.173-0.463,3.646-1.388c2.313-1.435,4.545-3.332,6.694-5.692l-0.876-1.256
		c-1.028,0.791-2.057,1.651-3.085,2.581c-1.448,1.303-2.512,1.953-3.189,1.953c-0.257,0-0.455-0.119-0.596-0.357
		s-0.21-0.596-0.21-1.072c0-1.558,0.744-4.709,2.234-9.452c1.584-5.068,2.562-8.358,2.935-9.87c0.209-0.906,0.314-1.721,0.314-2.441
		c0-1.093-0.257-1.93-0.771-2.511c-0.513-0.581-1.225-0.872-2.134-0.872c-1.237,0-2.812,0.593-4.725,1.78
		c-3.593,2.281-6.579,4.736-8.958,7.366l1.58-7.02c0.116-0.534,0.175-0.906,0.175-1.115c0-0.279-0.141-0.523-0.421-0.733
		c-0.28-0.209-0.666-0.313-1.157-0.313c-1.263,0-2.783,0.468-4.561,1.402s-4.163,2.827-7.156,5.678l1.191,1.221
		C785.085,522.667,786.44,521.494,787.89,520.533z M772.029,520.702c0.946,1.488,1.419,3.976,1.419,7.463
		c0,4.651-1.028,8.545-3.084,11.685c-1.612,2.418-3.4,3.627-5.363,3.627c-1.402,0-2.523-0.64-3.365-1.918
		c-1.145-1.744-1.717-4.127-1.717-7.15c0-4.976,0.929-8.876,2.786-11.701s3.779-4.237,5.766-4.237
		C769.896,518.47,771.082,519.214,772.029,520.702z M758.271,523.562c-2.805,4.139-4.207,8.649-4.207,13.532
		c0,2.813,0.766,5.034,2.296,6.662c1.53,1.627,3.546,2.441,6.047,2.441c4.065,0,7.922-2.052,11.567-6.156
		c3.645-4.104,5.468-8.736,5.468-13.898c0-3.231-0.76-5.755-2.278-7.568c-1.52-1.813-3.424-2.721-5.714-2.721
		C766.192,515.854,761.799,518.423,758.271,523.562z M741.954,520.388c0.596-0.371,1.127-0.558,1.595-0.558
		c0.421,0,0.631,0.232,0.631,0.697c0,0.419-0.082,0.896-0.245,1.43c-3.506,11.301-5.258,18.404-5.258,21.311
		c0,0.906,0.239,1.616,0.719,2.127c0.479,0.512,1.127,0.768,1.945,0.768c0.934,0,2.138-0.419,3.61-1.256
		c1.472-0.837,3.809-2.755,7.01-5.755l-1.367-1.325c-3.084,2.884-5,4.325-5.748,4.325c-0.188,0-0.362-0.11-0.525-0.331
		c-0.164-0.221-0.246-0.494-0.246-0.82c0-1.696,1.235-6.673,3.705-14.927c1.516-5.046,2.272-7.905,2.272-8.58
		c0-0.559-0.198-1-0.595-1.325c-0.396-0.326-0.969-0.488-1.716-0.488c-1.354,0-2.993,0.54-4.919,1.621
		c-1.926,1.082-4.056,2.901-6.389,5.459l1.542,1.186C740.031,521.946,741.358,520.76,741.954,520.388z M749.332,501.955
		c-0.678,0.732-1.017,1.622-1.017,2.668c0,0.791,0.233,1.43,0.701,1.918s1.052,0.732,1.753,0.732c0.888,0,1.688-0.389,2.401-1.168
		c0.712-0.778,1.068-1.68,1.068-2.703c0-0.744-0.233-1.354-0.701-1.831s-1.063-0.715-1.787-0.715
		C750.816,500.856,750.01,501.223,749.332,501.955z M721.746,518.121h-5.685l-0.631,2.476h5.679l-3.568,13.882
		c-0.888,3.441-1.332,5.999-1.332,7.673c0,1.418,0.251,2.441,0.754,3.069c0.502,0.628,1.186,0.941,2.051,0.941
		c1.052,0,2.441-0.431,4.171-1.29c1.729-0.86,5.152-3.209,10.271-7.046l-1.332-1.604c-1.776,1.442-3.646,2.732-5.608,3.872
		c-1.496,0.86-2.606,1.29-3.33,1.29c-0.468,0-0.836-0.14-1.104-0.418c-0.269-0.279-0.402-0.732-0.402-1.36
		c0-1.371,0.485-3.812,1.455-7.32l3.058-11.688h7.265l0.561-2.476h-7.259l2.519-9.763l-5.565,2.124L721.746,518.121z
		 M700.401,531.479c-0.865,3.256-2.221,5.75-4.066,7.481c-1.847,1.732-3.575,2.599-5.188,2.599c-0.865,0-1.566-0.349-2.104-1.047
		c-0.538-0.697-0.806-1.836-0.806-3.418c0-2.976,0.671-5.958,2.016-8.945c1.343-2.988,2.798-5.058,4.363-6.209
		c1.565-1.15,3.4-1.726,5.503-1.726c0.864,0,1.929,0.128,3.19,0.383L700.401,531.479z M706.815,516.621
		c-0.771-0.093-1.531-0.14-2.278-0.14c-2.968,0-5.398,0.442-7.291,1.325c-2.453,1.163-4.79,2.977-7.01,5.441
		c-2.221,2.465-3.991,5.208-5.311,8.23c-1.32,3.023-1.98,5.767-1.98,8.231c0,2.069,0.49,3.744,1.472,5.022
		c0.725,0.953,1.765,1.43,3.12,1.43c1.425,0,2.99-0.535,4.696-1.604c2.781-1.721,5.176-3.778,7.187-6.173l-1.402,4.743
		c-0.188,0.604-0.28,1.081-0.28,1.43c0,0.535,0.151,0.941,0.455,1.221s0.76,0.419,1.367,0.419c0.842,0,1.706-0.163,2.594-0.488
		c1.355-0.488,2.781-1.244,4.276-2.268c0.748-0.511,2.454-1.976,5.117-4.395l-1.121-1.36c-1.332,1.279-2.723,2.35-4.171,3.209
		c-0.818,0.488-1.414,0.732-1.788,0.732c-0.584,0-0.876-0.36-0.876-1.081s0.257-2.325,0.771-4.813
		c0.935-4.58,1.928-8.626,2.979-12.137l2.629-8.824l-2.313,0.488L706.815,516.621z M670.295,538.421
		c1.054-4.533,1.838-7.422,2.354-8.666c0.515-1.243,1.421-2.703,2.717-4.378c1.296-1.674,2.486-2.918,3.572-3.732
		s2.492-1.512,4.221-2.094c1.821-0.604,2.959-1.128,3.415-1.569c0.455-0.441,0.683-0.977,0.683-1.604
		c0-0.604-0.234-1.134-0.703-1.587c-0.468-0.453-1.054-0.681-1.756-0.681c-0.96,0-2.153,0.631-3.582,1.891
		c-2.974,2.638-5.643,5.813-8.008,9.523l1.525-6.274c0.307-1.309,0.461-2.114,0.461-2.419c0-0.302-0.123-0.552-0.368-0.75
		c-0.245-0.197-0.578-0.296-0.999-0.296c-1.191,0-2.902,0.599-5.133,1.796c-2.23,1.198-4.468,2.994-6.71,5.389l1.087,1.221
		c1.893-1.884,3.201-3.063,3.926-3.54c0.724-0.477,1.262-0.715,1.612-0.715c0.514,0,0.771,0.279,0.771,0.837
		c0,0.256-0.105,0.896-0.315,1.918c-0.889,4.14-1.929,8.511-3.12,13.114l-2.453,9.382h5.223L670.295,538.421z M646.211,523.562
		c0.747-1.744,1.67-3.046,2.769-3.906c0.818-0.65,1.659-0.977,2.524-0.977c0.841,0,1.524,0.297,2.05,0.89
		c0.526,0.593,0.789,1.39,0.789,2.389c0,1.325-0.643,2.663-1.928,4.011c-1.893,1.931-4.721,3.732-8.482,5.406
		C644.376,528.724,645.136,526.12,646.211,523.562z M649.436,540.826c-1.146,0.535-2.197,0.802-3.154,0.802
		c-1.006,0-1.771-0.325-2.296-0.977c-0.526-0.65-0.789-1.802-0.789-3.453c0-1.139,0.105-2.336,0.315-3.592
		c4.439-2,7.337-3.383,8.692-4.15c2.711-1.581,4.592-3.104,5.644-4.569s1.577-2.952,1.577-4.464c0-1.441-0.438-2.575-1.314-3.4
		c-0.876-0.825-2.144-1.238-3.803-1.238c-4.744,0-8.821,2.802-12.233,8.405c-3.037,4.93-4.557,9.882-4.557,14.857
		c0,2.465,0.438,4.255,1.314,5.371c0.877,1.116,2.144,1.675,3.804,1.675c4.089,0,8.996-2.709,14.722-8.127l-1.157-1.534
		C653.232,538.641,650.978,540.105,649.436,540.826z M609.933,520.533c0.701-0.492,1.238-0.738,1.612-0.738
		c0.467,0,0.701,0.314,0.701,0.942c0,0.233-0.059,0.617-0.176,1.152l-3.119,13.271c-0.725,3.19-1.577,6.532-2.559,10.024h5.223
		l2.839-12.189c0.631-2.747,1.413-4.749,2.349-6.007c1.472-1.956,3.306-3.656,5.503-5.1c1.472-0.978,2.676-1.467,3.61-1.467
		c0.864,0,1.297,0.36,1.297,1.081c0,0.488-0.397,2.197-1.191,5.127c-2.594,8.231-3.891,13.382-3.891,15.45
		c0,1.442,0.245,2.482,0.735,3.122c0.491,0.639,1.18,0.959,2.068,0.959c0.958,0,2.173-0.463,3.646-1.388
		c2.313-1.435,4.545-3.332,6.694-5.692l-0.876-1.256c-1.028,0.791-2.057,1.651-3.085,2.581c-1.448,1.303-2.512,1.953-3.189,1.953
		c-0.257,0-0.455-0.119-0.596-0.357s-0.21-0.596-0.21-1.072c0-1.558,0.744-4.709,2.234-9.452c1.584-5.068,2.562-8.358,2.935-9.87
		c0.209-0.906,0.314-1.721,0.314-2.441c0-1.093-0.257-1.93-0.771-2.511c-0.513-0.581-1.225-0.872-2.134-0.872
		c-1.237,0-2.812,0.593-4.725,1.78c-3.593,2.281-6.579,4.736-8.958,7.366l1.58-7.02c0.116-0.534,0.175-0.906,0.175-1.115
		c0-0.279-0.141-0.523-0.421-0.733c-0.28-0.209-0.666-0.313-1.157-0.313c-1.263,0-2.783,0.468-4.561,1.402s-4.163,2.827-7.156,5.678
		l1.191,1.221C607.128,522.667,608.483,521.494,609.933,520.533z M588.796,523.562c0.747-1.744,1.67-3.046,2.769-3.906
		c0.818-0.65,1.659-0.977,2.524-0.977c0.841,0,1.524,0.297,2.05,0.89c0.526,0.593,0.789,1.39,0.789,2.389
		c0,1.325-0.643,2.663-1.928,4.011c-1.893,1.931-4.721,3.732-8.482,5.406C586.961,528.724,587.721,526.12,588.796,523.562z
		 M592.021,540.826c-1.146,0.535-2.197,0.802-3.154,0.802c-1.006,0-1.771-0.325-2.296-0.977c-0.526-0.65-0.789-1.802-0.789-3.453
		c0-1.139,0.105-2.336,0.315-3.592c4.439-2,7.337-3.383,8.692-4.15c2.711-1.581,4.592-3.104,5.644-4.569s1.577-2.952,1.577-4.464
		c0-1.441-0.438-2.575-1.314-3.4c-0.876-0.825-2.144-1.238-3.803-1.238c-4.744,0-8.821,2.802-12.233,8.405
		c-3.037,4.93-4.557,9.882-4.557,14.857c0,2.465,0.438,4.255,1.314,5.371c0.877,1.116,2.144,1.675,3.804,1.675
		c4.089,0,8.996-2.709,14.722-8.127l-1.157-1.534C595.817,538.641,593.563,540.105,592.021,540.826z M578.386,505.391
		c-1.473-0.023-3.623-0.349-6.45-0.977c-2.804-0.65-5.246-0.977-7.326-0.977c-3.832,0-7.881,1.336-12.145,4.008
		c-4.266,2.672-7.595,6.075-9.99,10.211c-2.396,4.135-3.592,8.549-3.592,13.242c0,5.157,1.576,9.177,4.731,12.058
		c2.36,2.161,5.597,3.241,9.709,3.241c1.659,0,3.283-0.216,4.872-0.646c1.59-0.43,3.154-1.063,4.697-1.9
		c-2.221,8.184-4.475,13.404-6.766,15.659c-1.121,1.14-2.418,1.709-3.891,1.709c-0.725,0-1.408-0.187-2.05-0.558
		c-0.644-0.372-1.537-1.186-2.682-2.441c-1.005-1.116-1.905-1.674-2.699-1.674c-0.584,0-1.104,0.221-1.56,0.662
		s-0.684,0.977-0.684,1.604c0,1.162,0.717,2.272,2.15,3.331c1.434,1.058,3.317,1.587,5.648,1.587c2.752,0,5.316-0.773,7.695-2.319
		c2.377-1.547,4.499-4.093,6.364-7.639c1.866-3.546,3.76-9.282,5.683-17.212c0.543-2.208,1.063-3.574,1.559-4.098
		c0.497-0.523,1.335-0.772,2.517-0.75l0.386-1.778c-0.654,0.023-1.437,0.069-2.349,0.139c-1.729,0.14-3.015,0.21-3.854,0.21
		c-0.469,0-1.182-0.012-2.139-0.035c-1.239-0.046-2.278-0.069-3.119-0.069c-1.053,0-2.092,0.093-3.12,0.278l-0.315,1.709
		c1.425-0.116,2.324-0.174,2.699-0.174c1.098,0,1.863,0.169,2.295,0.506c0.433,0.337,0.648,0.796,0.648,1.377
		c0,1.21-0.537,3.64-1.611,7.29c-1.286,0.79-2.635,1.39-4.049,1.796c-1.414,0.407-2.893,0.61-4.434,0.61
		c-2.594,0-4.938-1.034-7.028-3.102c-2.092-2.067-3.138-5.296-3.138-9.687c0-4.32,1.058-8.467,3.173-12.439
		c2.114-3.973,4.831-7.068,8.149-9.286c3.318-2.219,6.625-3.328,9.92-3.328c2.383,0,4.387,0.721,6.011,2.162
		c1.624,1.442,2.437,3.731,2.437,6.871c0,0.837-0.059,1.802-0.176,2.895h1.894C576.458,513.831,577.1,509.809,578.386,505.391z
		 M506.674,538.421c1.053-4.533,1.838-7.422,2.354-8.666c0.516-1.243,1.421-2.703,2.717-4.378c1.295-1.674,2.486-2.918,3.572-3.732
		s2.492-1.512,4.221-2.094c1.82-0.604,2.959-1.128,3.414-1.569s0.684-0.977,0.684-1.604c0-0.604-0.234-1.134-0.703-1.587
		c-0.468-0.453-1.053-0.681-1.756-0.681c-0.959,0-2.154,0.631-3.582,1.891c-2.975,2.638-5.643,5.813-8.008,9.523l1.525-6.274
		c0.307-1.309,0.461-2.114,0.461-2.419c0-0.302-0.123-0.552-0.368-0.75c-0.245-0.197-0.578-0.296-0.999-0.296
		c-1.191,0-2.902,0.599-5.133,1.796c-2.23,1.198-4.468,2.994-6.71,5.389l1.087,1.221c1.893-1.884,3.201-3.063,3.926-3.54
		c0.724-0.477,1.262-0.715,1.612-0.715c0.514,0,0.771,0.279,0.771,0.837c0,0.256-0.104,0.896-0.314,1.918
		c-0.889,4.14-1.928,8.511-3.12,13.114l-2.454,9.382h5.223L506.674,538.421z M487.864,520.702c0.946,1.488,1.419,3.976,1.419,7.463
		c0,4.651-1.027,8.545-3.084,11.685c-1.612,2.418-3.4,3.627-5.363,3.627c-1.401,0-2.523-0.64-3.364-1.918
		c-1.146-1.744-1.718-4.127-1.718-7.15c0-4.976,0.929-8.876,2.787-11.701c1.857-2.825,3.779-4.237,5.766-4.237
		C485.731,518.47,486.918,519.214,487.864,520.702z M474.106,523.562c-2.804,4.139-4.206,8.649-4.206,13.532
		c0,2.813,0.766,5.034,2.296,6.662c1.53,1.627,3.546,2.441,6.046,2.441c4.066,0,7.922-2.052,11.567-6.156
		c3.646-4.104,5.468-8.736,5.468-13.898c0-3.231-0.76-5.755-2.277-7.568c-1.52-1.813-3.424-2.721-5.714-2.721
		C482.028,515.854,477.635,518.423,474.106,523.562z M447.502,520.597h8.377l-7.115,28.46c-1.052,4.208-2.104,6.854-3.155,7.935
		c-1.052,1.081-2.734,1.622-5.047,1.622c-1.495,0-3.061-0.104-4.697-0.313c-0.958-0.117-1.682-0.175-2.173-0.175
		c-0.981,0-1.735,0.215-2.261,0.646c-0.525,0.43-0.789,1.005-0.789,1.727c0,0.837,0.38,1.54,1.139,2.109
		c0.76,0.569,1.875,0.854,3.348,0.854c4.394,0,8.465-1.743,12.215-5.231c3.75-3.487,6.479-8.614,8.185-15.381l5.488-22.252h9.408
		l0.562-2.476H461.7l1.761-7.43c0.748-3.231,1.742-5.795,2.983-7.69c1.239-1.895,2.633-2.842,4.178-2.842
		c0.632,0,1.509,0.116,2.633,0.349c2.27,0.488,3.814,0.732,4.634,0.732c0.795,0,1.438-0.232,1.931-0.697
		c0.491-0.465,0.737-1.047,0.737-1.744c0-0.768-0.363-1.43-1.087-1.988c-0.725-0.558-1.8-0.837-3.225-0.837
		c-2.524,0-5.212,0.819-8.062,2.459c-2.852,1.639-5.165,3.877-6.941,6.714c-1.775,2.837-3.353,7.162-4.731,12.975h-8.377
		L447.502,520.597z M417.042,544.453c-0.024,3.069-0.246,5.533-0.668,7.394c-0.421,1.86-1.188,3.528-2.3,5.005
		c-1.112,1.477-2.417,2.604-3.916,3.384c-1.499,0.778-3.044,1.168-4.636,1.168c-1.686,0-3.12-0.529-4.303-1.587
		c-1.183-1.059-1.773-2.249-1.773-3.575c0-1.349,0.457-2.627,1.37-3.836c0.913-1.186,3.371-3.128,7.375-5.824
		c4.542-3.116,7.609-5.383,9.201-6.802C417.182,542.221,417.065,543.779,417.042,544.453z M419.588,530.049
		c-0.911,3.302-1.804,5.627-2.679,6.976c-0.875,1.349-2.002,2.471-3.378,3.365c-1.377,0.896-2.533,1.343-3.467,1.343
		c-0.77,0-1.465-0.371-2.083-1.116c-0.619-0.743-0.928-1.662-0.928-2.755c0-2.65,0.782-5.917,2.346-9.801
		c1.121-2.743,2.475-4.696,4.062-5.859c1.587-1.162,3.49-1.743,5.708-1.743c0.863,0,1.855,0.104,2.976,0.313L419.588,530.049z
		 M425.709,516.656c-0.958-0.047-1.765-0.07-2.42-0.07c-3.343,0-6.125,0.651-8.345,1.953c-3.601,2.116-6.68,5.284-9.24,9.504
		c-2.56,4.221-3.839,8.47-3.839,12.748c0,1.325,0.334,2.389,1.003,3.191c0.669,0.802,1.438,1.203,2.308,1.203
		c0.962,0,2.312-0.441,4.05-1.325c-1.523,0.953-3.151,1.883-4.885,2.79c-3.42,1.744-5.669,3.231-6.747,4.464
		c-1.453,1.628-2.179,3.384-2.179,5.267c0,1.906,0.906,3.598,2.717,5.075c1.812,1.476,4.296,2.215,7.452,2.215
		c3.67,0,6.843-0.872,9.52-2.616s4.506-4.046,5.488-6.905c0.701-2.047,1.075-4.744,1.123-8.092c0.023-2,0.14-3.65,0.349-4.953
		c0.396-2.604,1.106-5.859,2.131-9.766c1.42-5.465,2.981-10.918,4.681-16.359l-2.817,0.63L425.709,516.656z M374.56,520.533
		c0.701-0.492,1.238-0.738,1.612-0.738c0.467,0,0.701,0.314,0.701,0.942c0,0.233-0.059,0.617-0.175,1.152l-3.12,13.271
		c-0.724,3.19-1.577,6.532-2.559,10.024h5.223l2.839-12.189c0.631-2.747,1.414-4.749,2.349-6.007c1.472-1.956,3.306-3.656,5.503-5.1
		c1.472-0.978,2.675-1.467,3.61-1.467c0.864,0,1.297,0.36,1.297,1.081c0,0.488-0.397,2.197-1.192,5.127
		c-2.594,8.231-3.891,13.382-3.891,15.45c0,1.442,0.246,2.482,0.736,3.122c0.491,0.639,1.18,0.959,2.068,0.959
		c0.958,0,2.173-0.463,3.646-1.388c2.313-1.435,4.544-3.332,6.695-5.692l-0.876-1.256c-1.028,0.791-2.057,1.651-3.084,2.581
		c-1.449,1.303-2.512,1.953-3.19,1.953c-0.257,0-0.456-0.119-0.596-0.357s-0.21-0.596-0.21-1.072c0-1.558,0.745-4.709,2.235-9.452
		c1.583-5.068,2.562-8.358,2.934-9.87c0.209-0.906,0.314-1.721,0.314-2.441c0-1.093-0.257-1.93-0.77-2.511s-1.225-0.872-2.134-0.872
		c-1.237,0-2.811,0.593-4.724,1.78c-3.593,2.281-6.579,4.736-8.958,7.366l1.58-7.02c0.117-0.534,0.175-0.906,0.175-1.115
		c0-0.279-0.141-0.523-0.421-0.733c-0.28-0.209-0.667-0.313-1.157-0.313c-1.263,0-2.783,0.468-4.561,1.402
		c-1.778,0.935-4.163,2.827-7.156,5.678l1.191,1.221C371.756,522.667,373.111,521.494,374.56,520.533z M357.332,520.388
		c0.596-0.371,1.127-0.558,1.595-0.558c0.42,0,0.631,0.232,0.631,0.697c0,0.419-0.082,0.896-0.245,1.43
		c-3.505,11.301-5.258,18.404-5.258,21.311c0,0.906,0.239,1.616,0.718,2.127c0.479,0.512,1.127,0.768,1.945,0.768
		c0.935,0,2.138-0.419,3.61-1.256s3.809-2.755,7.01-5.755l-1.367-1.325c-3.084,2.884-5.001,4.325-5.749,4.325
		c-0.188,0-0.363-0.11-0.526-0.331c-0.164-0.221-0.245-0.494-0.245-0.82c0-1.696,1.235-6.673,3.705-14.927
		c1.515-5.046,2.272-7.905,2.272-8.58c0-0.559-0.199-1-0.595-1.325c-0.396-0.326-0.968-0.488-1.715-0.488
		c-1.354,0-2.993,0.54-4.918,1.621c-1.926,1.082-4.056,2.901-6.39,5.459l1.542,1.186C355.41,521.946,356.736,520.76,357.332,520.388
		z M364.71,501.955c-0.678,0.732-1.017,1.622-1.017,2.668c0,0.791,0.233,1.43,0.701,1.918s1.052,0.732,1.753,0.732
		c0.888,0,1.688-0.389,2.401-1.168c0.712-0.778,1.069-1.68,1.069-2.703c0-0.744-0.234-1.354-0.701-1.831
		c-0.468-0.477-1.063-0.715-1.788-0.715C366.194,500.856,365.388,501.223,364.71,501.955z M338.597,526.957
		c-1.075,4.541-1.928,7.395-2.559,8.559c-1.052,1.84-2.477,3.399-4.276,4.681c-1.262,0.861-2.384,1.292-3.365,1.292
		c-0.818,0-1.548-0.378-2.19-1.135c-0.643-0.757-0.964-1.729-0.964-2.917c0-2.608,0.695-5.671,2.085-9.188
		c1.39-3.516,2.833-5.885,4.329-7.108c1.495-1.223,3.026-1.834,4.591-1.834c0.771,0,2.091,0.21,3.961,0.629L338.597,526.957z
		 M343.013,541.278c-0.561,0.304-1.051,0.454-1.472,0.454c-0.678,0-1.017-0.441-1.017-1.327c0-0.813,0.291-2.465,0.873-4.953
		l4.959-21.069c1.326-5.628,2.176-8.965,2.549-10.012c0.562-1.647,1.153-2.72,1.774-3.22c0.621-0.499,1.341-0.748,2.161-0.748
		c0.585,0,1.675,0.116,3.268,0.349s2.682,0.349,3.268,0.349c0.89,0,1.592-0.227,2.108-0.68c0.515-0.454,0.773-1.041,0.773-1.762
		c0-0.744-0.281-1.36-0.841-1.849c-0.561-0.488-1.309-0.732-2.244-0.732c-1.776,0-3.686,0.412-5.731,1.236s-3.861,1.99-5.45,3.499
		c-1.589,1.509-2.886,3.302-3.891,5.379c-1.005,2.078-2.057,5.38-3.155,9.905c-1.029-0.162-1.8-0.244-2.313-0.244
		c-2.313,0-4.867,1.03-7.659,3.091c-2.793,2.06-5.328,5.237-7.606,9.532s-3.417,8.095-3.417,11.4c0,2.095,0.42,3.684,1.262,4.767
		c0.841,1.081,1.881,1.623,3.12,1.623c1.495,0,3.178-0.535,5.047-1.605s4.207-3.106,7.011-6.108l-1.227,4.261
		c-0.257,0.907-0.386,1.559-0.386,1.953c0,0.396,0.175,0.75,0.526,1.064c0.351,0.313,0.806,0.471,1.367,0.471
		c1.215,0,2.874-0.593,4.978-1.779c1.519-0.859,3.843-2.604,6.975-5.231l-0.981-1.325
		C345.35,539.732,343.808,540.837,343.013,541.278z M312.199,541.419c-0.982,0.604-1.73,0.906-2.244,0.906
		c-0.538,0-0.806-0.371-0.806-1.115c0-0.326,0.864-4.15,2.594-11.475l3.497-14.614c1.234-5.253,2.125-8.77,2.671-10.552
		c0.547-1.782,1.159-2.95,1.834-3.506c0.489-0.394,1.211-0.591,2.166-0.591s1.991,0.094,3.108,0.279
		c1.281,0.232,2.27,0.349,2.969,0.349c1.07,0,1.885-0.239,2.444-0.72c0.559-0.479,0.838-1.095,0.838-1.845
		c0-0.679-0.286-1.258-0.858-1.738c-0.572-0.479-1.359-0.72-2.363-0.72c-2.941,0-5.736,0.788-8.384,2.362
		c-2.648,1.575-4.696,3.787-6.144,6.636c-0.934,1.884-2.089,5.593-3.465,11.126l-3.781,15.312c-1.447,5.859-2.17,9.72-2.17,11.579
		c0,0.954,0.233,1.704,0.701,2.25s1.063,0.819,1.788,0.819c1.613,0,3.663-0.843,6.152-2.528s4.645-3.552,6.467-5.598l-1.191-1.256
		C316.081,538.663,314.139,540.21,312.199,541.419z M291.33,520.388c0.596-0.371,1.127-0.558,1.595-0.558
		c0.42,0,0.631,0.232,0.631,0.697c0,0.419-0.082,0.896-0.245,1.43c-3.505,11.301-5.258,18.404-5.258,21.311
		c0,0.906,0.239,1.616,0.718,2.127c0.479,0.512,1.127,0.768,1.945,0.768c0.935,0,2.138-0.419,3.61-1.256s3.809-2.755,7.01-5.755
		l-1.367-1.325c-3.084,2.884-5.001,4.325-5.749,4.325c-0.188,0-0.363-0.11-0.526-0.331c-0.164-0.221-0.245-0.494-0.245-0.82
		c0-1.696,1.235-6.673,3.705-14.927c1.515-5.046,2.272-7.905,2.272-8.58c0-0.559-0.199-1-0.595-1.325
		c-0.396-0.326-0.968-0.488-1.715-0.488c-1.354,0-2.993,0.54-4.918,1.621c-1.926,1.082-4.056,2.901-6.39,5.459l1.542,1.186
		C289.407,521.946,290.733,520.76,291.33,520.388z M298.708,501.955c-0.678,0.732-1.017,1.622-1.017,2.668
		c0,0.791,0.233,1.43,0.701,1.918s1.052,0.732,1.753,0.732c0.888,0,1.688-0.389,2.401-1.168c0.712-0.778,1.069-1.68,1.069-2.703
		c0-0.744-0.234-1.354-0.701-1.831c-0.468-0.477-1.063-0.715-1.788-0.715C300.191,500.856,299.385,501.223,298.708,501.955z
		 M273.075,531.095c-0.747,2.744-2.323,5.191-4.728,7.342c-2.405,2.151-4.261,3.227-5.568,3.227c-0.374,0-0.719-0.175-1.033-0.523
		c-0.316-0.35-0.473-0.769-0.473-1.258c0-0.791,0.748-4.017,2.243-9.674c1.683-6.287,2.523-10.233,2.523-11.84
		c0-0.861-0.175-1.495-0.525-1.903c-0.351-0.407-0.806-0.611-1.367-0.611c-1.005,0-2.331,0.437-3.979,1.309
		c-1.647,0.871-4.037,2.702-7.168,5.493l1.542,1.221c1.752-1.651,2.991-2.691,3.715-3.122c0.724-0.43,1.297-0.646,1.717-0.646
		c0.467,0,0.701,0.326,0.701,0.978c0,1.118-0.783,4.482-2.348,10.094c-1.239,4.424-2.01,7.369-2.313,8.836
		c-0.21,1.047-0.315,2.025-0.315,2.934c0,1.164,0.233,2.014,0.7,2.549c0.467,0.535,1.109,0.804,1.926,0.804
		c1.494,0,3.257-0.593,5.289-1.779c3.058-1.79,5.627-3.871,7.705-6.242c-0.506,2.022-0.759,3.639-0.759,4.848
		c0,1.046,0.263,1.854,0.789,2.424s1.162,0.854,1.91,0.854c2.22,0,5.679-2.43,10.375-7.289l-1.157-1.291
		c-2.15,2.163-3.61,3.512-4.381,4.046c-0.538,0.349-1.005,0.523-1.402,0.523c-0.257,0-0.491-0.116-0.701-0.349
		c-0.21-0.232-0.315-0.569-0.315-1.012c0-0.978,0.969-5.006,2.909-12.085l3.295-12.189h-4.991L273.075,531.095z M242.835,521.016
		c0.771,1.163,1.157,2.663,1.157,4.499c0,4.046-1.017,8.109-3.049,12.189c-2.033,4.081-4.347,6.121-6.94,6.121
		c-1.075,0-2.016-0.424-2.822-1.272s-1.209-1.901-1.209-3.157c0-3.348,0.701-6.76,2.103-10.236c1.402-3.476,2.892-5.899,4.469-7.271
		c1.578-1.372,2.938-2.058,4.084-2.058C241.562,519.83,242.298,520.226,242.835,521.016z M236.589,509.715
		c0.935-3.976,1.671-6.452,2.209-7.429c0.725-1.255,1.672-1.883,2.841-1.883c0.654,0,1.402,0.081,2.245,0.244
		c1.893,0.349,3.226,0.522,3.998,0.522c1.028,0,1.823-0.231,2.385-0.697c0.561-0.465,0.842-1.046,0.842-1.744
		c0-0.767-0.31-1.377-0.929-1.831c-0.619-0.453-1.595-0.68-2.927-0.68c-2.22,0-4.569,0.703-7.045,2.11
		c-2.477,1.407-4.475,3.29-5.994,5.649c-1.52,2.36-2.781,5.796-3.786,10.307l-4.136,18.45c-0.631,2.86-0.946,5.092-0.946,6.696
		c0,2,0.643,3.627,1.928,4.883c1.285,1.256,3.002,1.884,5.153,1.884c2.523,0,5.111-0.954,7.764-2.86
		c2.652-1.906,4.878-4.685,6.677-8.336c1.799-3.649,2.699-7.382,2.699-11.195c0-2.627-0.491-4.592-1.472-5.895
		c-0.981-1.302-2.291-1.953-3.926-1.953c-1.402,0-3.021,0.483-4.854,1.448c-1.835,0.965-3.698,2.481-5.591,4.551L236.589,509.715z
		 M207.679,538.838c-0.865,1.093-1.297,2.372-1.297,3.837c0,1,0.31,1.819,0.929,2.458c0.619,0.64,1.385,0.96,2.296,0.96
		c1.098,0,2.01-0.431,2.734-1.291c0.724-0.859,1.086-2.046,1.086-3.558c0-1.046-0.31-1.912-0.929-2.598
		c-0.62-0.686-1.385-1.029-2.296-1.029C209.151,537.617,208.31,538.024,207.679,538.838z M191.87,538.838
		c-0.865,1.093-1.297,2.372-1.297,3.837c0,1,0.31,1.819,0.929,2.458c0.619,0.64,1.385,0.96,2.296,0.96
		c1.098,0,2.01-0.431,2.734-1.291c0.724-0.859,1.086-2.046,1.086-3.558c0-1.046-0.31-1.912-0.929-2.598
		c-0.62-0.686-1.385-1.029-2.296-1.029C193.342,537.617,192.501,538.024,191.87,538.838z M176.062,538.838
		c-0.865,1.093-1.297,2.372-1.297,3.837c0,1,0.31,1.819,0.929,2.458c0.619,0.64,1.385,0.96,2.296,0.96
		c1.098,0,2.01-0.431,2.734-1.291c0.724-0.859,1.086-2.046,1.086-3.558c0-1.046-0.31-1.912-0.929-2.598
		c-0.62-0.686-1.385-1.029-2.296-1.029C177.534,537.617,176.693,538.024,176.062,538.838z"/>
</g>
</svg>
