<?xml version="1.0" encoding="utf-8"?>
<!-- Generator: Adobe Illustrator 16.0.0, SVG Export Plug-In . SVG Version: 6.00 Build 0)  -->
<!DOCTYPE svg PUBLIC "-//W3C//DTD SVG 1.1//EN" "http://www.w3.org/Graphics/SVG/1.1/DTD/svg11.dtd">
<svg version="1.1" id="Layer_1" xmlns="http://www.w3.org/2000/svg" xmlns:xlink="http://www.w3.org/1999/xlink" x="0px" y="0px"
	 width="882px" height="464px" viewBox="0 15.5 882 464" enable-background="new 0 15.5 882 464" xml:space="preserve">
<g>
	<polygon fill="#3F4040" points="44.3,327.023 442.3,101.023 845.3,327.023 753.579,327.023 444.8,158.023 137.3,327.023 	"/>
	<polygon fill="#3F4040" points="249.3,25.023 249.3,192.023 333.3,145.023 333.3,25.023 	"/>
	<polygon fill="#3F4040" points="551.3,141.023 551.3,25.023 635.3,25.023 635.3,192.023 	"/>
	<polygon fill="#3F4040" points="551.3,232.023 551.3,327.023 635.3,327.023 635.3,279.523 	"/>
	<polygon fill="#3F4040" points="249.3,279.523 333.3,232.023 333.3,327.023 249.3,327.023 	"/>
	<rect x="385.3" y="199.023" fill="#AF2024" width="48" height="45"/>
	<rect x="456.3" y="199.023" fill="#AF2024" width="48" height="45"/>
	<rect x="385.3" y="261.023" fill="#AF2024" width="48" height="45"/>
	<rect x="456.3" y="261.023" fill="#AF2024" width="48" height="45"/>
</g>
<g>
	<path fill="#AF2024" d="M843.535,462.977v-10.782h-10.783v10.782H843.535z M800.449,450.615c-3.964,3.297-8.804,4.942-14.52,4.942
		c-4.7,0-9.066-1.209-13.101-3.629c-4.033-2.42-7.005-6.076-8.916-10.969s-2.866-10.617-2.866-17.176
		c0-5.086,0.806-10.021,2.42-14.81c1.611-4.786,4.408-8.602,8.391-11.442c3.979-2.841,8.934-4.261,14.861-4.261
		c5.154,0,9.434,1.279,12.836,3.841c3.4,2.561,5.997,6.646,7.786,12.258l10.048-2.367c-2.069-7.119-5.734-12.646-10.995-16.571
		c-5.261-3.928-11.749-5.894-19.464-5.894c-6.805,0-13.039,1.553-18.702,4.655c-5.664,3.104-10.031,7.646-13.1,13.626
		c-3.069,5.979-4.604,12.985-4.604,21.018c0,7.365,1.358,14.256,4.077,20.674c2.717,6.418,6.681,11.32,11.889,14.703
		c5.208,3.385,11.969,5.078,20.28,5.078c8.03,0,14.826-2.201,20.385-6.604c5.56-4.4,9.408-10.794,11.548-19.175l-10.206-2.578
		C807.096,442.426,804.412,447.318,800.449,450.615z M685.346,462.977v-60.604l40.508,60.604h10.469v-77.121h-9.785v60.552
		l-40.507-60.552h-10.469v77.121H685.346z M657.675,462.977v-77.121h-10.206v77.121H657.675z M544.7,452.061
		c2.684,4.087,6.382,7.146,11.101,9.181c4.717,2.035,10.564,3.053,17.545,3.053c5.505,0,10.459-1.01,14.86-3.025
		c4.4-2.016,7.776-4.84,10.128-8.471c2.349-3.629,3.523-7.496,3.523-11.6c0-4.138-1.07-7.793-3.209-10.97
		c-2.14-3.174-5.454-5.795-9.942-7.862c-3.087-1.402-8.776-3.043-17.07-4.92c-8.295-1.875-13.424-3.709-15.389-5.498
		c-1.999-1.787-2.999-4.066-2.999-6.838c0-3.191,1.412-5.918,4.235-8.181c2.822-2.264,7.32-3.395,13.493-3.395
		c5.927,0,10.407,1.246,13.44,3.736c3.033,2.489,4.813,6.172,5.341,11.047l9.784-0.736c-0.176-4.525-1.438-8.576-3.788-12.152
		c-2.35-3.578-5.707-6.287-10.073-8.129c-4.366-1.84-9.408-2.762-15.125-2.762c-5.19,0-9.908,0.877-14.15,2.631
		c-4.244,1.754-7.471,4.322-9.68,7.707c-2.21,3.385-3.314,7.023-3.314,10.916c0,3.543,0.902,6.742,2.709,9.602
		c1.807,2.857,4.552,5.253,8.233,7.181c2.841,1.51,7.803,3.113,14.888,4.813c7.084,1.701,11.66,2.955,13.73,3.763
		c3.226,1.227,5.541,2.743,6.943,4.551c1.402,1.807,2.104,3.918,2.104,6.338c0,2.387-0.729,4.586-2.184,6.604
		c-1.456,2.017-3.675,3.604-6.654,4.761c-2.981,1.158-6.418,1.735-10.312,1.735c-4.385,0-8.33-0.764-11.837-2.289
		c-3.508-1.524-6.094-3.522-7.76-5.995c-1.666-2.474-2.729-5.64-3.184-9.496l-9.627,0.842
		C540.605,443.355,542.018,447.977,544.7,452.061z M476.495,394.377h24.409c5.717,0,9.898,1.176,12.547,3.525
		c2.647,2.35,3.973,5.348,3.973,8.996c0,2.489-0.685,4.795-2.053,6.918c-1.366,2.121-3.365,3.664-5.996,4.629
		s-6.278,1.446-10.942,1.446h-21.938V394.377z M476.495,462.977V428.73h11.836c2.632,0,4.524,0.122,5.683,0.366
		c1.578,0.388,3.131,1.07,4.656,2.054c1.524,0.982,3.252,2.7,5.182,5.153c1.929,2.455,4.384,5.998,7.365,10.627l10.205,16.045
		h12.837l-13.415-20.989c-2.666-4.104-5.489-7.521-8.471-10.258c-1.402-1.263-3.454-2.543-6.154-3.841
		c7.398-1.018,12.871-3.401,16.413-7.153c3.542-3.754,5.313-8.365,5.313-13.836c0-4.244-1.069-8.119-3.209-11.627
		c-2.14-3.506-4.997-5.953-8.574-7.338c-3.577-1.386-8.804-2.078-15.678-2.078h-34.194v77.12L476.495,462.977L476.495,462.977z
		 M397.559,400.717c5.208-4.963,11.424-7.443,18.648-7.443c5.086,0,9.672,1.287,13.758,3.865c4.085,2.578,7.188,6.209,9.312,10.892
		c2.121,4.682,3.183,10.162,3.183,16.438c0,9.926-2.48,17.588-7.443,22.988c-4.963,5.402-11.284,8.102-18.965,8.102
		c-7.541,0-13.811-2.674-18.808-8.021s-7.497-12.67-7.497-21.963C389.746,413.965,392.351,405.68,397.559,400.717z M383.644,444.67
		c2.946,6.068,7.277,10.855,12.994,14.361c5.716,3.508,12.205,5.262,19.465,5.262c6.698,0,12.941-1.588,18.728-4.762
		c5.787-3.174,10.259-7.847,13.414-14.021c3.156-6.172,4.734-13.17,4.734-20.989c0-7.716-1.498-14.615-4.496-20.701
		c-3-6.084-7.356-10.828-13.074-14.23c-5.717-3.4-12.135-5.104-19.254-5.104c-10.872,0-19.746,3.623-26.619,10.863
		c-6.874,7.243-10.311,17.266-10.311,30.065C379.225,432.186,380.698,438.604,383.644,444.67z M348.291,462.977v-68.021h25.516
		v-9.101h-61.13v9.101h25.41v68.021H348.291z M314.308,462.977v-9.1h-37.981v-68.021H266.12v77.121H314.308z M216.933,408.686
		c1.789-4.872,3.173-9.782,4.156-14.729c1.191,4.174,3.016,9.504,5.471,15.992l8.049,21.356h-26.146L216.933,408.686z
		 M197.047,462.977l8.47-23.356h32.248l8.996,23.356h11.626l-31.564-77.121h-10.994l-29.618,77.121H197.047z M180.581,462.977v-9.1
		h-47.348v-26.252h42.665v-9.049h-42.665v-23.621h45.559v-9.1h-55.765v77.12L180.581,462.977L180.581,462.977z M55.375,394.377
		h24.41c5.716,0,9.897,1.176,12.546,3.525c2.647,2.35,3.972,5.348,3.972,8.996c0,2.489-0.684,4.795-2.052,6.918
		c-1.368,2.121-3.367,3.664-5.997,4.629s-6.278,1.446-10.942,1.446H55.375V394.377z M55.375,462.977V428.73h11.837
		c2.63,0,4.523,0.122,5.682,0.366c1.578,0.388,3.13,1.07,4.656,2.054c1.525,0.981,3.252,2.7,5.182,5.153
		c1.929,2.455,4.385,5.998,7.365,10.627l10.206,16.045h12.836l-13.415-20.989c-2.666-4.104-5.489-7.521-8.47-10.258
		c-1.403-1.263-3.455-2.543-6.155-3.841c7.399-1.018,12.871-3.401,16.414-7.153c3.542-3.754,5.313-8.365,5.313-13.836
		c0-4.244-1.07-8.119-3.209-11.627c-2.141-3.506-4.998-5.953-8.575-7.338c-3.577-1.386-8.804-2.078-15.677-2.078H45.17v77.12
		L55.375,462.977L55.375,462.977z"/>
</g>
</svg>
