<?xml version="1.0" encoding="utf-8"?>
<!-- Generator: Adobe Illustrator 16.0.0, SVG Export Plug-In . SVG Version: 6.00 Build 0)  -->
<!DOCTYPE svg PUBLIC "-//W3C//DTD SVG 1.1//EN" "http://www.w3.org/Graphics/SVG/1.1/DTD/svg11.dtd">
<svg version="1.1" id="Layer_1" xmlns="http://www.w3.org/2000/svg" xmlns:xlink="http://www.w3.org/1999/xlink" x="0px" y="0px"
	 width="3659.219px" height="464px" viewBox="0 15.5 3659.219 464" enable-background="new 0 15.5 3659.219 464"
	 xml:space="preserve">
<g>
	<g>
		<polygon fill="#FFFFFF" points="32.8,398.5 430.8,172.5 833.8,398.5 742.079,398.5 433.3,229.5 125.8,398.5 		"/>
		<polygon fill="#FFFFFF" points="237.8,96.5 237.8,263.5 321.8,216.5 321.8,96.5 		"/>
		<polygon fill="#FFFFFF" points="539.8,212.5 539.8,96.5 623.8,96.5 623.8,263.5 		"/>
		<polygon fill="#FFFFFF" points="539.8,303.5 539.8,398.5 623.8,398.5 623.8,351 		"/>
		<polygon fill="#FFFFFF" points="237.8,351 321.8,303.5 321.8,398.5 237.8,398.5 		"/>
		<rect x="373.8" y="270.5" fill="#FFFFFF" width="48" height="45"/>
		<rect x="444.8" y="270.5" fill="#FFFFFF" width="48" height="45"/>
		<rect x="373.8" y="332.5" fill="#FFFFFF" width="48" height="45"/>
		<rect x="444.8" y="332.5" fill="#FFFFFF" width="48" height="45"/>
	</g>
	<g>
		<path fill="#FFFFFF" d="M3490.352,372.247v-35.249H3455.1v35.249H3490.352z M3349.496,331.836
			c-12.959,10.777-28.781,16.157-47.468,16.157c-15.365,0-29.64-3.952-42.828-11.864c-13.185-7.91-22.9-19.863-29.147-35.857
			c-6.248-15.996-9.37-34.71-9.37-56.152c0-16.627,2.634-32.762,7.911-48.415c5.268-15.646,14.411-28.12,27.43-37.407
			c13.01-9.287,29.206-13.929,48.585-13.929c16.851,0,30.84,4.182,41.963,12.556c11.116,8.371,19.605,21.726,25.454,40.073
			l32.849-7.739c-6.765-23.274-18.747-41.34-35.945-54.174c-17.198-12.841-38.409-19.268-63.631-19.268
			c-22.246,0-42.627,5.076-61.141,15.219c-18.517,10.149-32.794,24.998-42.825,44.546c-10.034,19.548-15.05,42.452-15.05,68.71
			c0,24.078,4.441,46.604,13.329,67.586c8.882,20.981,21.84,37.008,38.866,48.066c17.026,11.066,39.128,16.602,66.3,16.602
			c26.253,0,48.47-7.195,66.642-21.588c18.176-14.385,30.757-35.287,37.752-62.686l-33.365-8.428
			C3371.225,305.063,3362.451,321.057,3349.496,331.836z M2973.201,372.247V174.123l132.428,198.124h34.224V120.124h-31.989v197.954
			L2975.44,120.124h-34.225v252.123H2973.201z M2882.74,372.247V120.124h-33.366v252.123H2882.74z M2513.406,336.561
			c8.772,13.361,20.863,23.363,36.29,30.014c15.42,6.652,34.537,9.979,57.357,9.979c17.996,0,34.192-3.302,48.581-9.891
			c14.386-6.589,25.422-15.822,33.11-27.692c7.678-11.863,11.519-24.506,11.519-37.922c0-13.526-3.499-25.476-10.491-35.861
			c-6.994-10.375-17.83-18.945-32.503-25.703c-10.092-4.584-28.691-9.948-55.807-16.084c-27.117-6.129-43.885-12.125-50.308-17.974
			c-6.535-5.843-9.805-13.294-9.805-22.354c0-10.434,4.616-19.347,13.846-26.744c9.227-7.4,23.932-11.098,44.112-11.098
			c19.375,0,34.022,4.074,43.939,12.215c9.916,8.138,15.735,20.177,17.46,36.114l31.986-2.407
			c-0.575-14.794-4.7-28.037-12.384-39.728c-7.682-11.698-18.658-20.554-32.932-26.575c-14.274-6.015-30.757-9.029-49.446-9.029
			c-16.969,0-32.393,2.867-46.261,8.601c-13.874,5.733-24.423,14.13-31.645,25.195c-7.225,11.065-10.835,22.961-10.835,35.687
			c0,11.583,2.949,22.042,8.855,31.39c5.906,9.341,14.881,17.172,26.917,23.475c9.287,4.936,25.509,10.178,48.67,15.736
			c23.159,5.562,38.119,9.66,44.888,12.301c10.545,4.01,18.115,8.968,22.699,14.877c4.585,5.906,6.88,12.809,6.88,20.719
			c0,7.803-2.382,14.993-7.139,21.589c-4.76,6.593-12.014,11.784-21.754,15.563c-9.747,3.787-20.981,5.674-33.71,5.674
			c-14.335,0-27.232-2.496-38.697-7.484c-11.468-4.982-19.922-11.516-25.368-19.598c-5.446-8.088-8.92-18.438-10.407-31.045
			l-31.473,2.752C2500.016,308.102,2504.635,323.209,2513.406,336.561z M2290.43,147.982h79.799
			c18.689,0,32.359,3.844,41.018,11.525c8.655,7.682,12.987,17.482,12.987,29.41c0,8.138-2.237,15.675-6.71,22.616
			c-4.467,6.934-11.002,11.979-19.603,15.132c-8.601,3.154-20.525,4.728-35.772,4.728h-71.719V147.982z M2290.43,372.247V260.291
			h38.694c8.604,0,14.791,0.398,18.577,1.197c5.159,1.268,10.236,3.5,15.223,6.714c4.983,3.211,10.631,8.827,16.939,16.847
			c6.306,8.026,14.332,19.609,24.078,34.742l33.362,52.454h41.967l-43.856-68.618c-8.716-13.418-17.945-24.589-27.692-33.535
			c-4.585-4.128-11.292-8.313-20.119-12.557c24.187-3.326,42.077-11.119,53.657-23.385c11.579-12.272,17.367-27.347,17.367-45.232
			c0-13.875-3.496-26.543-10.49-38.011c-6.995-11.461-16.337-19.462-28.031-23.989c-11.694-4.53-28.781-6.793-51.253-6.793h-111.788
			v252.12h33.365V372.247z M2032.372,168.708c17.026-16.225,37.347-24.334,60.966-24.334c16.626,0,31.619,4.208,44.977,12.636
			c13.354,8.428,23.5,20.298,30.44,35.607c6.935,15.305,10.405,33.222,10.405,53.74c0,32.449-8.109,57.498-24.334,75.153
			c-16.225,17.661-36.891,26.485-62,26.485c-24.652,0-45.148-8.74-61.485-26.221c-16.336-17.479-24.509-41.42-24.509-71.8
			C2006.832,212.019,2015.346,184.933,2032.372,168.708z M1986.881,312.398c9.633,19.84,23.791,35.489,42.48,46.951
			c18.687,11.467,39.9,17.201,63.635,17.201c21.897,0,42.308-5.191,61.224-15.566c18.919-10.377,33.538-25.652,43.853-45.836
			c10.318-20.178,15.478-43.055,15.478-68.618c0-25.224-4.897-47.78-14.698-67.676c-9.808-19.89-24.05-35.399-42.742-46.521
			c-18.689-11.117-39.671-16.685-62.944-16.685c-35.543,0-64.554,11.845-87.022,35.514c-22.473,23.679-33.707,56.444-33.707,98.29
			C1972.436,271.585,1977.249,292.567,1986.881,312.398z M1871.308,372.247V149.875h83.415v-29.751h-199.845v29.751h83.07v222.372
			H1871.308z M1760.209,372.247v-29.749h-124.168V120.124h-33.365v252.123H1760.209z M1441.873,194.76
			c5.849-15.928,10.372-31.98,13.587-48.15c3.896,13.645,9.858,31.07,17.885,52.282l26.313,69.818h-85.475L1441.873,194.76z
			 M1376.863,372.247l27.689-76.356h105.425l29.41,76.356h38.007l-103.19-252.123h-35.941l-96.827,252.123H1376.863z
			 M1323.033,372.247v-29.749h-154.789v-85.822h139.48v-29.582h-139.48v-77.222h148.939v-29.749h-182.305v252.12h188.154V372.247z
			 M913.711,147.982h79.801c18.687,0,32.357,3.844,41.016,11.525c8.654,7.682,12.984,17.482,12.984,29.41
			c0,8.138-2.235,15.675-6.708,22.616c-4.473,6.934-11.008,11.979-19.605,15.132c-8.598,3.154-20.525,4.728-35.772,4.728h-71.715
			V147.982z M913.711,372.247V260.291h38.697c8.598,0,14.788,0.398,18.574,1.197c5.159,1.268,10.232,3.5,15.223,6.714
			c4.986,3.208,10.631,8.827,16.939,16.847c6.305,8.026,14.334,19.609,24.078,34.742l33.365,52.454h41.963l-43.855-68.618
			c-8.717-13.418-17.945-24.589-27.689-33.535c-4.588-4.128-11.295-8.313-20.123-12.557c24.19-3.326,42.078-11.119,53.66-23.385
			c11.58-12.272,17.371-27.347,17.371-45.232c0-13.875-3.499-26.543-10.49-38.011c-6.998-11.461-16.34-19.462-28.034-23.989
			c-11.694-4.53-28.781-6.793-51.25-6.793H880.349v252.12h33.362V372.247z"/>
	</g>
</g>
</svg>
