<?xml version="1.0" encoding="utf-8"?>
<!-- Generator: Adobe Illustrator 16.0.0, SVG Export Plug-In . SVG Version: 6.00 Build 0)  -->
<!DOCTYPE svg PUBLIC "-//W3C//DTD SVG 1.1//EN" "http://www.w3.org/Graphics/SVG/1.1/DTD/svg11.dtd">
<svg version="1.1" id="Layer_1" xmlns="http://www.w3.org/2000/svg" xmlns:xlink="http://www.w3.org/1999/xlink" x="0px" y="0px"
	 width="141.732px" height="141.732px" viewBox="0 0 141.732 141.732" enable-background="new 0 0 141.732 141.732"
	 xml:space="preserve">
<polygon fill="#E41E25" points="57.428,0 110.546,0 0,110.545 0,57.427 "/>
<g>
	<path fill="#FFFFFF" d="M60.768,14.903c1.217-1.217,2.386-1.791,3.507-1.722c1.12,0.069,2.486,0.908,4.098,2.521
		c1.217,1.216,1.979,2.214,2.287,2.993c0.308,0.778,0.363,1.482,0.167,2.117c-0.198,0.632-0.787,1.439-1.769,2.422l-1.152,1.15
		l-8.311-8.311L60.768,14.903z M66.661,32.54l6.982-6.982c0.837-0.836,1.633-1.908,2.385-3.216c0.555-0.953,0.855-2.063,0.908-3.325
		c0.052-1.263-0.187-2.526-0.71-3.792c-0.525-1.267-1.601-2.711-3.229-4.337c-1.037-1.037-2.143-1.896-3.318-2.573
		c-1.176-0.679-2.391-1.089-3.642-1.234C64.786,6.935,63.55,7.1,62.329,7.573c-1.221,0.474-2.519,1.399-3.895,2.775l-6.982,6.981
		L66.661,32.54z M52.428,46.773l12.033-12.034l-3.746-3.746l-7.334,7.335L41.918,26.865l-4.698,4.7L52.428,46.773z M28.795,48.599
		c-0.097-1.244,0.328-2.342,1.275-3.289c0.989-0.989,2.104-1.441,3.341-1.36c1.238,0.083,2.573,0.841,4.005,2.272
		c1.701,1.7,2.604,3.157,2.707,4.366c0.104,1.211-0.349,2.321-1.357,3.33c-0.982,0.982-2.096,1.424-3.335,1.324
		c-1.241-0.1-2.63-0.918-4.165-2.454C29.715,51.241,28.892,49.844,28.795,48.599z M32.031,60.862
		c1.882,0.484,3.657,0.438,5.327-0.141c1.671-0.577,3.363-1.725,5.079-3.438c1.688-1.688,2.78-3.414,3.278-5.177
		c0.498-1.765,0.478-3.514-0.063-5.25c-0.54-1.737-1.697-3.493-3.477-5.271c-2.447-2.447-5.035-3.667-7.764-3.656
		s-5.358,1.28-7.89,3.813c-2.469,2.469-3.704,5.087-3.704,7.854c0,2.767,1.241,5.391,3.724,7.875
		C28.321,59.246,30.15,60.378,32.031,60.862z M19.022,77.708c1.992,0,4.281-1.293,6.867-3.878c1.473-1.476,2.48-2.908,3.023-4.302
		c0.543-1.395,0.673-2.771,0.389-4.134c-0.282-1.363-0.911-2.531-1.888-3.507c-0.829-0.83-1.783-1.378-2.857-1.645
		c-1.076-0.266-2.284-0.182-3.626,0.254c-1.342,0.437-3.261,1.459-5.758,3.071c-1.003,0.657-1.716,0.996-2.138,1.018
		c-0.422,0.034-0.754-0.069-0.996-0.312c-0.332-0.333-0.476-0.752-0.431-1.261s0.341-1.035,0.887-1.582
		c0.664-0.664,1.339-1.027,2.027-1.095c0.688-0.064,1.435,0.187,2.235,0.752l4.172-4.688c-1.771-1.383-3.527-1.926-5.271-1.629
		c-1.743,0.298-3.586,1.419-5.53,3.361c-1.583,1.584-2.631,3.03-3.144,4.336c-0.511,1.309-0.646,2.535-0.404,3.684
		c0.242,1.147,0.754,2.113,1.536,2.894c1.19,1.19,2.611,1.726,4.263,1.607c1.646-0.11,3.732-0.964,6.256-2.563
		c1.535-0.981,2.632-1.49,3.289-1.524c0.657-0.035,1.184,0.145,1.578,0.54c0.414,0.414,0.599,0.961,0.549,1.638
		c-0.048,0.678-0.407,1.354-1.078,2.023c-0.899,0.898-1.898,1.283-2.999,1.15c-0.679-0.083-1.43-0.438-2.252-1.067l-4.19,4.751
		C15.201,77.007,17.03,77.708,19.022,77.708z"/>
</g>
<g>
	<polyline fill="#FFFFFF" points="0.35,62.73 4.632,58.527 3.931,57.813 -0.35,62.016 	"/>
	<path fill="#FFFFFF" d="M43.896,19.979l7.853-7.709l-0.701-0.713l-7.853,7.709L43.896,19.979z M28.19,35.398l7.853-7.71l-0.7-0.713
		l-7.853,7.709L28.19,35.398z M12.484,50.817l7.853-7.709l-0.701-0.714l-7.853,7.709L12.484,50.817z"/>
	<polyline fill="#FFFFFF" points="59.601,4.56 63.883,0.357 63.183,-0.357 58.901,3.846 	"/>
	<polyline fill="#FFFFFF" points="0.348,102.411 4.648,98.226 3.951,97.51 -0.349,101.694 	"/>
	<path fill="#FFFFFF" d="M83.412,21.576l8.751-8.517l-0.697-0.717l-8.751,8.517L83.412,21.576z M65.908,38.61l8.751-8.517
		l-0.697-0.716l-8.751,8.517L65.908,38.61z M48.406,55.643l8.751-8.517l-0.697-0.717l-8.751,8.517L48.406,55.643z M30.903,72.677
		l8.751-8.517l-0.697-0.716l-8.751,8.517L30.903,72.677z M13.4,89.71l8.751-8.517l-0.697-0.717l-8.751,8.517L13.4,89.71z"/>
	<polyline fill="#FFFFFF" points="100.915,4.543 105.215,0.358 104.517,-0.359 100.218,3.826 	"/>
</g>
</svg>
